{"title":"Beethoven's 3rd 2000 DVDrip English Klam","uid":6504607,"size":1578928421,"categoryP":"video","categoryS":"movies","magnet":"?xt=urn:btih:dfe058a34a77fd94ed2314adbbcf1a21575d7282&amp;dn=Beethoven%5C%27s+3rd+2000+DVDrip+English+Klam&amp;tr=udp%3A%2F%2Ftracker.openbittorrent.com%3A80&amp;tr=udp%3A%2F%2Fopen.demonii.com%3A1337&amp;tr=udp%3A%2F%2Ftracker.coppersurfer.tk%3A6969&amp;tr=udp%3A%2F%2Fexodus.desync.com%3A6969","seeders":3,"leechers":0,"uploader":"Klambake","files":-1,"time":1309378590,"description":"With: Judge Reinhold, Julia Sweeney en Michaela Gallo\n\nHet gezin Newton besluit om samen een tripje naar Europa te maken om daar de rest van de familie te ontmoeten. Ze kunnen echter niet met het vliegtuig, omdat anders hun hond Beethoven niet mee kan. Daarom besluiten ze maar om al hun pakken en zakken in de grote camper te laden en de boot te nemen. Helaas zorgt Beethoven voor de nodige commotie.\n\nThe Newton family from the original Beethoven movies are on vacation in Europe but do plan to join a Newton family reunion and to make sure one of their family members definitely makes it...\n\n------------------ Dutch Friends ------------------\nYou can find my Friends at: http://www.Film-Test.nl \n------ They got my dutchs subs ---- and more ------\n\nGeneral:\n\nComplete name                    : Beethoven 3th\\Beethoven 3th.avi\nFormat                           : AVI\nFormat/Info                      : Audio Video Interleave\nFile size                        : 1.47 GiB\nDuration                         : 1h 34mn\nOverall bit rate                 : 2 235 Kbps\n\nVideo:\n\nFormat                           : MPEG-4 Visual\nFormat profile                   : Simple@L3\nFormat settings, BVOP            : No\nFormat settings, QPel            : No\nFormat settings, GMC             : No warppoints\nFormat settings, Matrix          : Default (H.263)\nCodec ID                         : XVID\nCodec ID/Hint                    : XviD\nDuration                         : 1h 34mn\nBit rate                         : 1 840 Kbps\nWidth                            : 652 pixels\nHeight                           : 352 pixels\nDisplay aspect ratio             : 1.852\nFrame rate                       : 25.000 fps\nColor space                      : YUV\nChroma subsampling               : 4:2:0\nBit depth                        : 8 bits\nScan type                        : Progressive\nBits/(Pixel*Frame)               : 0.321\nStream size                      : 1.21 GiB (82%)\nWriting library                  : XviD 1.1.2 (UTC 2006-11-01)\n\nAudio:\n\nFormat                           : AC-3\nFormat/Info                      : Audio Coding 3\nMode extension                   : CM (complete main)\nCodec ID                         : 2000\nDuration                         : 1h 34mn\nBit rate mode                    : Constant\nBit rate                         : 384 Kbps\nChannel(s)                       : 6 channels\nChannel positions                : Front: L C R, Side: L R, LFE\nSampling rate                    : 48.0 KHz\nBit depth                        : 16 bits\nStream size                      : 258 MiB (17%)\nAlignment                        : Aligned on interleaves\nInterleave, duration             : 32 ms (0.80 video frame)\nInterleave, preload duration     : 32 ms\n\n\n","torrent":{"xt":"urn:btih:dfe058a34a77fd94ed2314adbbcf1a21575d7282","amp;dn":"Beethoven%5C%27s+3rd+2000+DVDrip+English+Klam","amp;tr":["udp%3A%2F%2Ftracker.openbittorrent.com%3A80","udp%3A%2F%2Fopen.demonii.com%3A1337","udp%3A%2F%2Ftracker.coppersurfer.tk%3A6969","udp%3A%2F%2Fexodus.desync.com%3A6969"],"infoHash":"dfe058a34a77fd94ed2314adbbcf1a21575d7282","infoHashBuffer":{"type":"Buffer","data":[223,224,88,163,74,119,253,148,237,35,20,173,187,207,26,33,87,93,114,130]},"announce":[],"urlList":[]}}